<?xml version="1.0" encoding="utf-8"?>
<!-- Generator: Adobe Illustrator 24.0.0, SVG Export Plug-In . SVG Version: 6.00 Build 0)  -->
<svg version="1.1" xmlns="http://www.w3.org/2000/svg" xmlns:xlink="http://www.w3.org/1999/xlink" x="0px" y="0px"
	 viewBox="0 0 187.45 45.12" style="enable-background:new 0 0 187.45 45.12;" xml:space="preserve">
<style type="text/css">
	.st0{display:none;}
	.st1{display:inline;fill-rule:evenodd;clip-rule:evenodd;fill:#D35454;}
	.st2{fill:#F8FCFF;}
</style>
<g id="Capa_2" class="st0">
	<rect x="-15.4" y="-21.73" class="st1" width="232.14" height="97"/>
</g>
<g id="Capa_1">
	<g id="Grupo_1936" transform="translate(-8 -463.5)">
		<path id="Trazado_1959" class="st2" d="M23.81,508.24c-8.73,0-15.81-7.08-15.81-15.81s7.08-15.81,15.81-15.81
			s15.81,7.08,15.81,15.81l0,0C39.6,501.16,32.53,508.23,23.81,508.24z M23.81,480.39c-6.65,0-12.04,5.39-12.04,12.04
			s5.39,12.04,12.04,12.04s12.04-5.39,12.04-12.04l0,0C35.84,485.79,30.45,480.4,23.81,480.39L23.81,480.39z"/>
		<path id="Trazado_1960" class="st2" d="M60.69,508.24c-8.73,0-15.81-7.08-15.81-15.81s7.08-15.81,15.81-15.81
			s15.81,7.08,15.81,15.81l0,0C76.48,501.16,69.41,508.23,60.69,508.24z M60.69,480.39c-6.65,0-12.04,5.39-12.04,12.04
			s5.39,12.04,12.04,12.04s12.04-5.39,12.04-12.04l0,0C72.72,485.79,67.34,480.4,60.69,480.39L60.69,480.39z"/>
		<path id="Trazado_1961" class="st2" d="M154.77,508.24c-8.73,0-15.81-7.08-15.81-15.81s7.08-15.81,15.81-15.81
			s15.81,7.08,15.81,15.81l0,0C170.57,501.16,163.5,508.23,154.77,508.24z M154.77,480.39c-6.65,0-12.04,5.39-12.04,12.04
			s5.39,12.04,12.04,12.04s12.04-5.39,12.04-12.04l0,0C166.81,485.79,161.42,480.4,154.77,480.39L154.77,480.39z"/>
		<path id="Trazado_1962" class="st2" d="M97.41,507.81c-3.93-0.05-7.71-1.57-10.57-4.26c-3.61-3.2-5.4-7.97-4.78-12.76
			c0.71-4.4,3.2-8.31,6.88-10.83c3.36-2.43,7.58-3.35,11.65-2.55c1.02,0.19,1.69,1.18,1.5,2.2c-0.19,1.02-1.18,1.69-2.2,1.5
			c-0.02,0-0.04-0.01-0.07-0.01c-3.05-0.59-6.22,0.12-8.73,1.95c-2.83,1.92-4.74,4.92-5.3,8.3c-0.46,3.55,0.9,7.09,3.61,9.43
			c2.75,2.65,6.64,3.78,10.38,2.99c1.02-0.22,2.02,0.42,2.24,1.44c0.22,0.99-0.39,1.98-1.38,2.23
			C99.58,507.69,98.5,507.81,97.41,507.81z"/>
		<path id="Trazado_1963" class="st2" d="M190.75,507.81c-3.93-0.05-7.71-1.57-10.57-4.26c-3.61-3.2-5.4-7.97-4.78-12.76
			c0.71-4.4,3.2-8.31,6.88-10.83c3.36-2.43,7.58-3.35,11.65-2.55c1.01,0.23,1.65,1.24,1.42,2.25c-0.22,0.99-1.19,1.62-2.19,1.43
			c-3.05-0.59-6.22,0.12-8.73,1.95c-2.83,1.92-4.74,4.92-5.3,8.3c-0.46,3.55,0.9,7.09,3.61,9.43c2.75,2.65,6.64,3.78,10.38,2.99
			c1.01-0.25,2.03,0.36,2.28,1.37c0.25,1.01-0.36,2.03-1.37,2.28c-0.02,0-0.04,0.01-0.06,0.01
			C192.91,507.69,191.83,507.81,190.75,507.81z"/>
		<path id="Trazado_1964" class="st2" d="M121.11,477H110.4c-1.47,0-2.67,1.19-2.67,2.67v25.53c0,1.47,1.19,2.67,2.67,2.67h10.71
			c7.16,0,12.96-5.8,12.96-12.96v-4.93C134.08,482.81,128.28,477.01,121.11,477C121.11,477,121.11,477,121.11,477z M127.79,493.18
			c-0.04,0-0.08,0-0.12,0c-0.79,0-1.44-0.6-1.5-1.39c-0.02-2.07-0.92-4.04-2.47-5.41c-2.54-2.01-6.3-1.5-6.33-1.5
			c-0.82,0.15-1.6-0.4-1.75-1.22s0.4-1.6,1.22-1.75c0.02,0,0.05-0.01,0.07-0.01c0.21-0.03,5.07-0.74,8.66,2.11
			c2.23,1.88,3.54,4.62,3.6,7.54c0.07,0.83-0.54,1.55-1.37,1.62C127.8,493.18,127.8,493.18,127.79,493.18L127.79,493.18z"/>
		<path id="Trazado_1965" class="st2" d="M46.94,492.06c-1.04,0-1.88-0.84-1.88-1.88c0,0,0,0,0,0v-24.84
			c0.02-1.04,0.89-1.86,1.92-1.84c1.01,0.02,1.81,0.83,1.84,1.84v24.84C48.82,491.22,47.98,492.06,46.94,492.06z"/>
		<path id="Trazado_1966" class="st2" d="M37.71,508.62c-1.04,0-1.88-0.84-1.88-1.88c0,0,0,0,0,0v-12.8
			c0.02-1.04,0.89-1.86,1.92-1.84c1.01,0.02,1.81,0.83,1.84,1.84v12.8C39.59,507.77,38.75,508.62,37.71,508.62
			C37.71,508.62,37.71,508.62,37.71,508.62z"/>
	</g>
</g>
</svg>
