<?xml version="1.0" encoding="UTF-8"?>
<svg width="246px" height="70px" viewBox="0 0 246 70" version="1.1" xmlns="http://www.w3.org/2000/svg" xmlns:xlink="http://www.w3.org/1999/xlink">
    <!-- Generator: Sketch 54.1 (76490) - https://sketchapp.com -->
    <title>Blue</title>
    <desc>Created with Sketch.</desc>
    <defs>
        <polygon id="path-1" points="0.7639 0.961 38.5979 0.961 38.5979 52.9999 0.7639 52.9999"></polygon>
        <polygon id="path-3" points="0.2341 0.7334 25.737 0.7334 25.737 37.9054 0.2341 37.9054"></polygon>
    </defs>
    <g id="Blue" stroke="none" stroke-width="1" fill="none" fill-rule="evenodd">
        <g id="Group-15" transform="translate(9.000000, 8.000000)">
            <path d="M27.7522,42.9918 C25.3272,45.4168 22.3822,46.6298 18.9172,46.6298 C15.4532,46.6298 12.4952,45.4168 10.0482,42.9918 C7.6222,40.5438 6.4092,37.5878 6.4092,34.1228 C6.4092,30.6818 7.6222,27.7358 10.0482,25.2878 C12.4952,22.8398 15.4532,21.6158 18.9172,21.6158 C22.3822,21.6158 25.3272,22.8398 27.7522,25.2878 C30.2002,27.7358 31.4252,30.6818 31.4252,34.1228 C31.4252,37.5878 30.2002,40.5438 27.7522,42.9918 M18.9172,15.2048 C13.6962,15.2048 9.2382,17.0528 5.5442,20.7488 C1.8482,24.4448 0.0002,28.9028 0.0002,34.1228 C0.0002,39.3428 1.8482,43.8008 5.5442,47.4968 C9.2382,51.1928 13.6962,53.0388 18.9172,53.0388 C23.6752,53.0388 27.8442,51.4578 31.4252,48.2928 L31.4252,49.8868 C31.4252,50.7648 31.7362,51.5038 32.3592,52.1038 C32.9842,52.7278 33.7232,53.0388 34.5772,53.0388 L34.6822,53.0388 C35.5352,53.0388 36.2742,52.7278 36.8982,52.1038 C37.5222,51.5038 37.8342,50.7648 37.8342,49.8868 L37.8342,34.1228 C37.8342,28.9028 35.9862,24.4448 32.2902,20.7488 C28.5962,17.0528 24.1362,15.2048 18.9172,15.2048" id="Fill-1" fill="#3646BB"></path>
            <g id="Group-5" transform="translate(44.000000, 0.039300)">
                <mask id="mask-2" fill="white">
                    <use xlink:href="#path-1"></use>
                </mask>
                <g id="Clip-4"></g>
                <path d="M28.5159,43.0219 C26.0899,45.4709 23.1459,46.6939 19.6809,46.6939 C16.2169,46.6939 13.2589,45.4709 10.8109,43.0219 C8.3859,40.5739 7.1729,37.6289 7.1729,34.1869 C7.1729,30.7219 8.3859,27.7659 10.8109,25.3179 C13.2589,22.8699 16.2169,21.6459 19.6809,21.6459 C23.1459,21.6459 26.0899,22.8699 28.5159,25.3179 C30.9639,27.7659 32.1889,30.7219 32.1889,34.1869 C32.1889,37.6289 30.9639,40.5739 28.5159,43.0219 M19.6809,15.1659 C14.8999,15.1659 10.7309,16.7489 7.1729,19.9129 L7.1729,4.1129 C7.1729,3.2359 6.8619,2.4859 6.2389,1.8609 C5.6139,1.2609 4.8749,0.9609 4.0209,0.9609 L3.9159,0.9609 C3.0609,0.9609 2.3229,1.2609 1.6999,1.8609 C1.0759,2.4859 0.7639,3.2359 0.7639,4.1129 L0.7639,34.1869 C0.7869,39.3839 2.6459,43.8189 6.3419,47.4909 C10.0139,51.1639 14.4599,52.9999 19.6809,52.9999 C24.8999,52.9999 29.3599,51.1529 33.0539,47.4579 C36.7499,43.7609 38.5979,39.3039 38.5979,34.0839 C38.5979,28.8639 36.7499,24.4059 33.0539,20.7099 C29.3599,17.0139 24.8999,15.1659 19.6809,15.1659" id="Fill-3" fill="#3646BB" mask="url(#mask-2)"></path>
            </g>
            <path d="M186.2346,43.0612 C183.8106,45.5102 180.8646,46.7332 177.3996,46.7332 C173.9356,46.7332 170.9786,45.5102 168.5316,43.0612 C166.1056,40.6132 164.8926,37.6682 164.8926,34.2262 C164.8926,30.7612 166.1056,27.8052 168.5316,25.3572 C170.9786,22.9092 173.9356,21.6852 177.3996,21.6852 C180.8646,21.6852 183.8106,22.9092 186.2346,25.3572 C188.6826,27.8052 189.9076,30.7612 189.9076,34.2262 C189.9076,37.6682 188.6826,40.6132 186.2346,43.0612 M177.3996,15.2052 C172.1796,15.2052 167.7216,17.0532 164.0266,20.7492 C160.3306,24.4452 158.4836,28.9032 158.4836,34.1232 C158.4836,39.3432 160.3306,43.8002 164.0266,47.4972 C167.7216,51.1922 172.1796,53.0392 177.3996,53.0392 C182.6206,53.0392 187.0786,51.1922 190.7736,47.4972 C194.4696,43.8002 196.3176,39.3432 196.3176,34.1232 C196.3176,28.9032 194.4696,24.4452 190.7736,20.7492 C187.0786,17.0532 182.6206,15.2052 177.3996,15.2052" id="Fill-6" fill="#3646BB"></path>
            <path d="M112.9182,47.6197 C112.3242,47.0147 111.5312,46.6817 110.6842,46.6817 L105.7762,46.6817 C103.8212,46.5867 102.0442,46.0557 100.4932,45.1017 C98.7692,44.0397 97.4122,42.5607 96.4632,40.7037 C95.5102,38.8447 95.0272,36.7087 95.0272,34.3557 C95.0272,32.0487 95.5222,29.9257 96.4962,28.0427 C97.4692,26.1637 98.8582,24.6727 100.6272,23.6107 C102.1372,22.7057 103.8702,22.1797 105.7792,22.0487 L110.6702,22.0487 C112.3642,22.0487 113.7682,20.6697 113.7992,18.9617 C113.8152,18.1167 113.4972,17.3167 112.9042,16.7137 C112.3112,16.1087 111.5172,15.7757 110.6702,15.7757 L105.9202,15.7757 L105.9202,15.7727 L105.7682,15.7757 C102.4292,15.8137 99.4202,16.6257 96.8262,18.1857 C94.1592,19.7907 92.0502,22.0377 90.5572,24.8637 C89.0652,27.6857 88.3112,30.8797 88.3112,34.3557 C88.3112,37.8307 89.0312,41.0247 90.4532,43.8467 C91.8792,46.6737 93.9322,48.9217 96.5552,50.5257 C99.1782,52.1317 102.2492,52.9447 105.6842,52.9447 L105.9202,52.9417 L105.9202,52.9407 L110.6842,52.9407 C112.3782,52.9407 113.7822,51.5617 113.8142,49.8677 C113.8292,49.0227 113.5112,48.2237 112.9182,47.6197" id="Fill-8" fill="#3646BB"></path>
            <g id="Group-12" transform="translate(202.000000, 15.039300)">
                <mask id="mask-4" fill="white">
                    <use xlink:href="#path-3"></use>
                </mask>
                <g id="Clip-11"></g>
                <path d="M24.8411,32.5804 C24.2471,31.9754 23.4541,31.6424 22.6071,31.6424 L17.6991,31.6424 C15.7441,31.5474 13.9671,31.0164 12.4161,30.0624 C10.6921,29.0004 9.3351,27.5214 8.3861,25.6644 C7.4331,23.8054 6.9501,21.6694 6.9501,19.3164 C6.9501,17.0094 7.4451,14.8864 8.4191,13.0034 C9.3921,11.1244 10.7811,9.6334 12.5501,8.5714 C14.0601,7.6664 15.7931,7.1404 17.7021,7.0094 L22.5931,7.0094 C24.2861,7.0094 25.6911,5.6304 25.7221,3.9224 C25.7371,3.0774 25.4201,2.2774 24.8271,1.6744 C24.2341,1.0694 23.4401,0.7364 22.5931,0.7364 L17.8421,0.7364 L17.8421,0.7334 L17.6911,0.7364 C14.3521,0.7744 11.3431,1.5864 8.7481,3.1464 C6.0821,4.7514 3.9731,6.9984 2.4791,9.8244 C0.9881,12.6464 0.2341,15.8404 0.2341,19.3164 C0.2341,22.7914 0.9541,25.9854 2.3761,28.8074 C3.8021,31.6344 5.8551,33.8824 8.4781,35.4864 C11.1011,37.0924 14.1721,37.9054 17.6071,37.9054 L17.8421,37.9024 L17.8421,37.9014 L22.6071,37.9014 C24.3011,37.9014 25.7051,36.5224 25.7371,34.8284 C25.7521,33.9834 25.4341,33.1844 24.8411,32.5804" id="Fill-10" fill="#3646BB" mask="url(#mask-4)"></path>
            </g>
            <path d="M144.5725,33.7013 L144.4765,33.7013 C143.4935,33.7013 142.7015,32.9503 142.5815,31.9733 C142.4445,30.8663 142.1815,29.8523 141.7945,28.9453 C141.3285,27.8583 140.6835,27.0373 139.8235,26.4403 C139.0555,25.9083 138.0565,25.6483 136.7705,25.6483 L133.1115,25.6483 C132.0595,25.6483 131.2075,24.7963 131.2075,23.7443 L131.2075,23.6463 C131.2075,22.5953 132.0595,21.7423 133.1115,21.7423 L136.7705,21.7423 C138.8495,21.7423 140.6275,22.2433 142.0515,23.2313 C143.5115,24.2443 144.6345,25.6513 145.3865,27.4103 C145.9245,28.6683 146.2835,30.0513 146.4645,31.5383 C146.6015,32.6843 145.7255,33.7013 144.5725,33.7013 M152.7645,34.2183 C152.7515,30.8423 152.1535,27.7313 150.9755,24.9763 C149.7765,22.1723 147.9685,19.9183 145.6015,18.2743 C143.2265,16.6273 140.3435,15.7933 137.0295,15.7933 L123.7255,15.7933 C122.9265,15.7933 122.2365,16.0773 121.6765,16.6383 C121.1145,17.1983 120.8305,17.8883 120.8305,18.6893 L120.8305,49.9713 C120.8305,50.7723 121.1145,51.4623 121.6765,52.0213 C122.2365,52.5823 122.9265,52.8673 123.7255,52.8673 L137.0295,52.8673 C140.3435,52.8673 143.2265,52.0323 145.6015,50.3853 C147.9685,48.7423 149.7765,46.4873 150.9755,43.6833 C152.1535,40.9293 152.7515,37.8183 152.7645,34.4413 C152.7645,34.4033 152.7695,34.3683 152.7695,34.3303 L152.7695,34.3303 L152.7695,34.3293 C152.7695,34.2913 152.7645,34.2563 152.7645,34.2183" id="Fill-13" fill="#3646BB"></path>
        </g>
    </g>
</svg>